<svg viewBox="0 0 687 437" xmlns="http://www.w3.org/2000/svg" xmlns:xlink="http://www.w3.org/1999/xlink" version="1.1">
    <path d="M 172 0 L 106 0 L 106 12.5 L 106 25 L 53.5 25 L 1 25 L 1 48 L 1 71 L 168 71 L 335 71 L 335 80.5 L 335 90 L 168 90 L 1 90 L 1 159 L 1 228 L 167.5 228 L 334 228 L 334 237 L 334 246 L 167.5 246 L 1 246 L 1 300 L 1 354 L 48.5 354 L 96 354 L 96 319.5 L 96 285 L 166.5 285 L 237 285 L 237 319.5 L 237 354 L 285.5 354 L 334 354 L 334 327.5 L 334 301 L 351.5 301 L 369 301 L 369 327.5 L 369 354 L 412 354 L 455 354 L 455 313 L 455 272 L 465.5 272 L 476 272 L 476 251.5 L 476 231 L 490 231 L 504 231 L 504 251.5 L 504 272 L 491 272 L 478 272 L 478 313 L 478 354 L 519.7155995466958 353.75 L 561.4311990933917 353.5 L 572.1209834108552 333 C 578.00036478546 321.725 583.1209222505752 312.5 583.4999999999999 312.5 C 583.8790777494246 312.5 588.999630451922 321.725 594.8790060055497 333 L 605.5687797394182 353.5 L 646.2843898697091 353.75 L 687 354 L 687 314 L 687 274 L 672.5 274 L 658 274 L 658 253 L 658 232 L 672.5 232 L 687 232 L 687 193 L 687 154 L 669.5 154 L 652 154 L 652 141.5 L 652 129 L 669.5 129 L 687 129 L 687 79.5 L 687 30 L 665 30 L 643 30 L 643 15 L 643 0 L 584 0 L 525 0 L 525 12.5 L 525 25 L 475 25 L 425 25 L 425 12.5 L 425 0 L 397.5 0 L 370 0 L 370 13.5 L 370 27 L 304 27 L 238 27 L 238 13.5 L 238 0 L 172 0 Z M 351 129 L 370 129 L 370 154.5 L 370 180 L 351 180 L 332 180 L 332 154.5 L 332 129 L 351 129 Z M 477.5 131 L 507 131 L 507 143.5 L 507 156 L 477.5 156 L 448 156 L 448 143.5 L 448 131 L 477.5 131 Z M 167 152 L 222 152 L 222 160 L 222 168 L 167 168 L 112 168 L 112 160 L 112 152 L 167 152 Z M 583.5 225 L 608 225 L 603.6308787754268 233.25 C 601.2278621019116 237.7875 595.8278621019116 248.1375 591.6308787754268 256.25 C 587.433895448942 264.3625 583.775 271 583.5 271 C 583.225 271 579.566104551058 264.3625 575.3691212245732 256.25 C 571.1721378980884 248.1375 565.7721378980884 237.7875 563.3691212245732 233.25 L 559 225 L 583.5 225 Z M 166.5 305 L 113 305 L 113 329.5 L 113 354 L 166.5 354 L 220 354 L 220 329.5 L 220 305 L 166.5 305 Z M 167.5 321 L 179 321 L 179 330.5 L 179 340 L 167.5 340 L 156 340 L 156 330.5 L 156 321 L 167.5 321 Z M 34 365 L 1 365 L 1 376 L 1 387 L 6 387 L 11 387 L 11 412 L 11 437 L 33.5 437 L 56 437 L 56 412 L 56 387 L 61.5 387 L 67 387 L 67 376 L 67 365 L 34 365 Z M 105 365.0145038173788 C 80.46190963778245 365.0412439772057 77.27026782288691 365.2305619202964 75.36703996974735 366.77223584558885 C 74.1939119531084 367.72250613051494 72.73141195310839 369.5125 72.11703996974735 370.75 C 71.36446667612061 372.2658722664536 71 383.4409277659936 71 405 L 71 437 L 85.5 437 L 100 437 L 100 432.5 L 100 428 L 105.25 428.25 L 110.5 428.5 L 110.75 432.75 L 111 437 L 125.5 437 L 140 437 L 140 406 C 140 382.7510633042451 139.67222384723337 374.18738852455493 138.68907524852744 371.75 C 137.96806663521755 369.9625 136.28056663521755 367.7090205873055 134.93907524852744 366.74226797178994 C 132.75062083040385 365.1651471243146 129.67430905821112 364.98761521447216 105 365.0145038173788 Z M 158.5 365 L 144 365 L 144 401 L 144 437 L 158.5 437 L 173 437 L 173 429.5 L 173 422 L 178 422 L 183 422 L 183 429.5 L 183 437 L 197.5 437 L 212 437 L 212 424 L 212 411 L 206.25 406.0462793060624 L 200.5 401.0925586121248 L 205.5 396.58598470747216 C 208.25 394.10736905991325 210.8375 392.06154337218516 211.25 392.0397054014098 C 211.6625 392.0178674306344 212 385.925 212 378.5 L 212 365 L 197.5 365 L 183 365 L 183 372.5 L 183 380 L 178 380 L 173 380 L 173 372.5 L 173 365 L 158.5 365 Z M 251 365.0145038173788 C 226.46190963778247 365.0412439772057 223.2702678228869 365.2305619202964 221.36703996974734 366.77223584558885 C 220.1939119531084 367.72250613051494 218.7314119531084 369.5125 218.11703996974734 370.75 C 217.36446667612063 372.2658722664536 217 383.4409277659936 217 405 L 217 437 L 231.5 437 L 246 437 L 246 432.5 L 246 428 L 251.25 428.25 L 256.5 428.5 L 256.75 432.75 L 257 437 L 271.5 437 L 286 437 L 286 406 C 286 382.7510633042449 285.6722238472334 374.187388524555 284.68907524852744 371.75 C 283.96806663521755 369.9625 282.28056663521755 367.7090205873055 280.93907524852744 366.74226797178994 C 278.7506208304038 365.1651471243146 275.6743090582111 364.98761521447216 251 365.0145038173788 Z M 323.75 364.99226797178994 C 301.6243767584829 364.9862121861946 295.06641580470915 365.278263355334 293.5 366.33941656397275 C 292.4 367.08460090518884 290.92302989901805 369.00058031788336 290.2178442200401 370.5971485921828 C 289.2475605022772 372.7939093135503 289.00432011989034 380.6361526655673 289.2178442200401 402.8378615653426 L 289.5 432.17572313068524 L 292.25 434.5878615653426 L 295 437 L 323 437 L 351 437 L 354.25 434.08359767166985 L 357.5 431.1671953433397 L 357.81961633990534 404.83359767166985 C 357.99540532685324 390.3501189522514 357.82235858220673 376.475 357.4350680184686 374 C 357.0049752638085 371.2514704269852 355.81023254346746 368.6242647865074 354.3654516785633 367.25 L 352 365 L 323.75 364.99226797178994 Z M 395.5 365 L 369 365 L 365.75 367.9179709575759 L 362.5 370.83594191515175 L 362.5 401 L 362.5 431.1640580848483 L 365.75 434.08202904242415 L 369 437 L 400.5 437 L 432 437 L 432 416 L 432 395 L 424 395 L 416 395 L 416 405 L 416 415 L 411.5 415 L 407 415 L 407 401 L 407 387 L 414.5 387 L 422 387 L 422 376 L 422 365 L 395.5 365 Z M 459.5 365 L 437 365 L 437 401 L 437 437 L 459.5 437 L 482 437 L 482 401 L 482 365 L 459.5 365 Z M 501.5 365 L 487 365 L 487 401 L 487 437 L 501.5 437 L 516 437 L 516 429.5 L 516 422 L 521 422 L 526 422 L 526 429.5 L 526 437 L 540.5 437 L 555 437 L 555 424 L 555 411 L 549.25 406.0462793060624 L 543.5 401.0925586121248 L 548.5 396.58598470747216 C 551.25 394.10736905991325 553.8375 392.06154337218516 554.25 392.0397054014098 C 554.6625 392.0178674306344 555 385.925 555 378.5 L 555 365 L 540.5 365 L 526 365 L 526 372.5 L 526 380 L 521 380 L 516 380 L 516 372.5 L 516 365 L 501.5 365 Z M 588 365 L 560 365 L 560 401 L 560 437 L 588 437 L 616 437 L 616 426 L 616 415 L 610.5 415 L 605 415 L 605 411 L 605 407 L 610.5 407 L 616 407 L 616 401 L 616 395 L 610.5 395 L 605 395 L 605 391 L 605 387 L 610.5 387 L 616 387 L 616 376 L 616 365 L 588 365 Z M 633.75 364.9945664711461 L 621 365 L 621 401 L 621 437 L 634.5 437 L 648 437 L 648 429.5 L 648 422 L 653 422 L 658 422 L 658 429.5 L 658 437 L 672 437 L 686 437 L 686 401 L 686 365 L 672 365 L 658 365 L 658 369.5 C 658 371.975 657.775 374 657.5 374 C 657.225 374 654.6375 371.97255491201577 651.75 369.4945664711461 L 646.5 364.9891329422922 L 633.75 364.9945664711461 Z M 323.5 385 L 329 385 L 328.75 400.75 L 328.5 416.5 L 323.25 416.75 L 318 417 L 318 401 L 318 385 L 323.5 385 Z M 105.5 387 L 111 387 L 111 393.5 L 111 400 L 105.5 400 L 100 400 L 100 393.5 L 100 387 L 105.5 387 Z M 251.5 387 L 257 387 L 257 393.5 L 257 400 L 251.5 400 L 246 400 L 246 393.5 L 246 387 L 251.5 387 Z "></path>
</svg>